<svg width="118" height="108" viewBox="0 0 118 108" fill="none" xmlns="http://www.w3.org/2000/svg">
<g filter="url(#filter0_d)">
<rect x="8" y="4" width="102" height="92" rx="15" fill="white"/>
<rect x="8.25" y="4.25" width="101.5" height="91.5" rx="14.75" stroke="#110B11" stroke-opacity="0.1" stroke-width="0.5"/>
</g>
<path d="M71 39C71 39.7072 70.719 40.3855 70.219 40.8856C69.7189 41.3857 69.0406 41.6667 68.3333 41.6667H52.3333L47 47V25.6667C47 24.9594 47.281 24.2811 47.781 23.781C48.2811 23.281 48.9594 23 49.6667 23H68.3333C69.0406 23 69.7189 23.281 70.219 23.781C70.719 24.2811 71 24.9594 71 25.6667V39Z" stroke="#110B11" stroke-opacity="0.6" stroke-width="3" stroke-linecap="round" stroke-linejoin="round"/>
<path d="M48.2459 77.126C47.2939 77.126 46.4585 76.9207 45.7399 76.51C45.0305 76.0993 44.4845 75.5113 44.1019 74.746C43.7192 73.9807 43.5279 73.0847 43.5279 72.058C43.5279 71.0313 43.7192 70.14 44.1019 69.384C44.4845 68.6187 45.0305 68.0307 45.7399 67.62C46.4585 67.2093 47.2939 67.004 48.2459 67.004C48.8619 67.004 49.4405 67.0973 49.9819 67.284C50.5232 67.4613 51.0039 67.7227 51.4239 68.068C51.5452 68.1613 51.6292 68.2593 51.6759 68.362C51.7225 68.4647 51.7459 68.5907 51.7459 68.74C51.7459 68.9453 51.6899 69.118 51.5779 69.258C51.4659 69.398 51.3305 69.468 51.1719 69.468C50.9852 69.468 50.7939 69.4027 50.5979 69.272C50.1965 68.9733 49.8232 68.768 49.4779 68.656C49.1325 68.5347 48.7499 68.474 48.3299 68.474C47.3592 68.474 46.6219 68.7773 46.1179 69.384C45.6232 69.9907 45.3759 70.882 45.3759 72.058C45.3759 73.2433 45.6232 74.1393 46.1179 74.746C46.6219 75.3527 47.3592 75.656 48.3299 75.656C48.7312 75.656 49.0999 75.5953 49.4359 75.474C49.7812 75.3527 50.1685 75.1473 50.5979 74.858C50.6912 74.802 50.7845 74.7553 50.8779 74.718C50.9712 74.6807 51.0692 74.662 51.1719 74.662C51.3305 74.662 51.4659 74.732 51.5779 74.872C51.6899 75.012 51.7459 75.1847 51.7459 75.39C51.7459 75.53 51.7225 75.656 51.6759 75.768C51.6292 75.8707 51.5452 75.9687 51.4239 76.062C51.0039 76.4073 50.5232 76.6733 49.9819 76.86C49.4405 77.0373 48.8619 77.126 48.2459 77.126ZM57.5242 69.986C59.1295 69.986 59.9322 70.924 59.9322 72.8V76.244C59.9322 76.5053 59.8528 76.7107 59.6942 76.86C59.5448 77.0093 59.3348 77.084 59.0642 77.084C58.7935 77.084 58.5788 77.0093 58.4202 76.86C58.2615 76.7107 58.1822 76.5053 58.1822 76.244V72.8C58.1822 72.3053 58.0795 71.946 57.8742 71.722C57.6782 71.4887 57.3655 71.372 56.9362 71.372C56.4322 71.372 56.0262 71.5307 55.7182 71.848C55.4195 72.1653 55.2702 72.59 55.2702 73.122V76.244C55.2702 76.5053 55.1908 76.7107 55.0322 76.86C54.8735 77.0093 54.6588 77.084 54.3882 77.084C54.1175 77.084 53.9028 77.0093 53.7442 76.86C53.5948 76.7107 53.5202 76.5053 53.5202 76.244V67.872C53.5202 67.6293 53.5995 67.4333 53.7582 67.284C53.9262 67.1347 54.1408 67.06 54.4022 67.06C54.6635 67.06 54.8735 67.13 55.0322 67.27C55.1908 67.41 55.2702 67.6013 55.2702 67.844V71.106C55.5035 70.742 55.8115 70.4667 56.1942 70.28C56.5862 70.084 57.0295 69.986 57.5242 69.986ZM65.0276 69.986C65.9796 69.986 66.6843 70.224 67.1416 70.7C67.6083 71.1667 67.8416 71.8807 67.8416 72.842V76.258C67.8416 76.51 67.7669 76.7107 67.6176 76.86C67.4683 77 67.2629 77.07 67.0016 77.07C66.7589 77.07 66.5583 76.9953 66.3996 76.846C66.2503 76.6967 66.1756 76.5007 66.1756 76.258V75.95C66.0169 76.314 65.7649 76.5987 65.4196 76.804C65.0836 77.0093 64.6916 77.112 64.2436 77.112C63.7863 77.112 63.3709 77.0187 62.9976 76.832C62.6243 76.6453 62.3303 76.3887 62.1156 76.062C61.9009 75.7353 61.7936 75.3713 61.7936 74.97C61.7936 74.466 61.9196 74.0693 62.1716 73.78C62.4329 73.4907 62.8529 73.2807 63.4316 73.15C64.0103 73.0193 64.8083 72.954 65.8256 72.954H66.1756V72.632C66.1756 72.1747 66.0776 71.8433 65.8816 71.638C65.6856 71.4233 65.3683 71.316 64.9296 71.316C64.6589 71.316 64.3836 71.358 64.1036 71.442C63.8236 71.5167 63.4923 71.6287 63.1096 71.778C62.8669 71.8993 62.6896 71.96 62.5776 71.96C62.4096 71.96 62.2696 71.8993 62.1576 71.778C62.0549 71.6567 62.0036 71.498 62.0036 71.302C62.0036 71.1433 62.0409 71.008 62.1156 70.896C62.1996 70.7747 62.3349 70.6627 62.5216 70.56C62.8483 70.3827 63.2356 70.2427 63.6836 70.14C64.1409 70.0373 64.5889 69.986 65.0276 69.986ZM64.5936 75.852C65.0603 75.852 65.4383 75.698 65.7276 75.39C66.0263 75.0727 66.1756 74.6667 66.1756 74.172V73.878H65.9236C65.2983 73.878 64.8129 73.906 64.4676 73.962C64.1223 74.018 63.8749 74.116 63.7256 74.256C63.5763 74.396 63.5016 74.5873 63.5016 74.83C63.5016 75.1287 63.6043 75.376 63.8096 75.572C64.0243 75.7587 64.2856 75.852 64.5936 75.852ZM73.5262 75.782C73.9928 75.81 74.2262 76.02 74.2262 76.412C74.2262 76.636 74.1328 76.8087 73.9462 76.93C73.7688 77.042 73.5122 77.0887 73.1762 77.07L72.7982 77.042C71.2302 76.93 70.4462 76.09 70.4462 74.522V71.47H69.7462C69.4942 71.47 69.2982 71.414 69.1582 71.302C69.0275 71.19 68.9622 71.0267 68.9622 70.812C68.9622 70.5973 69.0275 70.434 69.1582 70.322C69.2982 70.21 69.4942 70.154 69.7462 70.154H70.4462V68.866C70.4462 68.614 70.5255 68.4133 70.6842 68.264C70.8428 68.1147 71.0575 68.04 71.3282 68.04C71.5895 68.04 71.7995 68.1147 71.9582 68.264C72.1168 68.4133 72.1962 68.614 72.1962 68.866V70.154H73.3862C73.6382 70.154 73.8295 70.21 73.9602 70.322C74.1002 70.434 74.1702 70.5973 74.1702 70.812C74.1702 71.0267 74.1002 71.19 73.9602 71.302C73.8295 71.414 73.6382 71.47 73.3862 71.47H72.1962V74.648C72.1962 75.3387 72.5135 75.7073 73.1482 75.754L73.5262 75.782Z" fill="#110B11" fill-opacity="0.6"/>
<defs>
<filter id="filter0_d" x="0" y="0" width="118" height="108" filterUnits="userSpaceOnUse" color-interpolation-filters="sRGB">
<feFlood flood-opacity="0" result="BackgroundImageFix"/>
<feColorMatrix in="SourceAlpha" type="matrix" values="0 0 0 0 0 0 0 0 0 0 0 0 0 0 0 0 0 0 127 0"/>
<feOffset dy="4"/>
<feGaussianBlur stdDeviation="4"/>
<feColorMatrix type="matrix" values="0 0 0 0 0.0666667 0 0 0 0 0.0431373 0 0 0 0 0.0666667 0 0 0 0.1 0"/>
<feBlend mode="normal" in2="BackgroundImageFix" result="effect1_dropShadow"/>
<feBlend mode="normal" in="SourceGraphic" in2="effect1_dropShadow" result="shape"/>
</filter>
</defs>
</svg>
