<svg width="128" height="40" viewBox="0 0 128 40" fill="none" xmlns="http://www.w3.org/2000/svg">
<path d="M46.948 24.724C47.3773 25.1533 47.592 25.62 47.592 26.124C47.592 26.6467 47.3867 27.104 46.976 27.496C46.584 27.888 46.1267 28.084 45.604 28.084C45.0067 28.084 44.4747 27.8413 44.008 27.356L35.328 18.872V25.984C35.328 26.656 35.132 27.188 34.74 27.58C34.348 27.972 33.816 28.168 33.144 28.168C32.472 28.168 31.94 27.972 31.548 27.58C31.156 27.188 30.96 26.656 30.96 25.984V10.276C30.96 9.62267 31.156 9.1 31.548 8.708C31.94 8.316 32.472 8.12 33.144 8.12C33.816 8.12 34.348 8.316 34.74 8.708C35.132 9.1 35.328 9.62267 35.328 10.276V16.968L43.784 8.764C44.1947 8.35333 44.6613 8.148 45.184 8.148C45.7067 8.148 46.164 8.344 46.556 8.736C46.948 9.10933 47.144 9.55733 47.144 10.08C47.144 10.6213 46.92 11.1067 46.472 11.536L39.808 17.78L46.948 24.724ZM56.0718 28.224C54.6158 28.224 53.3372 27.9347 52.2358 27.356C51.1345 26.7587 50.2852 25.928 49.6878 24.864C49.0905 23.7813 48.7918 22.512 48.7918 21.056C48.7918 19.6 49.0905 18.34 49.6878 17.276C50.2852 16.1933 51.1345 15.3627 52.2358 14.784C53.3372 14.2053 54.6158 13.916 56.0718 13.916C57.5278 13.916 58.8065 14.2053 59.9078 14.784C61.0092 15.3627 61.8585 16.1933 62.4558 17.276C63.0532 18.34 63.3518 19.6 63.3518 21.056C63.3518 22.512 63.0532 23.7813 62.4558 24.864C61.8585 25.928 61.0092 26.7587 59.9078 27.356C58.8065 27.9347 57.5278 28.224 56.0718 28.224ZM56.0718 25.004C58.1252 25.004 59.1518 23.688 59.1518 21.056C59.1518 19.7307 58.8812 18.7413 58.3398 18.088C57.8172 17.4347 57.0612 17.108 56.0718 17.108C54.0185 17.108 52.9918 18.424 52.9918 21.056C52.9918 23.688 54.0185 25.004 56.0718 25.004ZM84.1313 15.204C84.2993 14.812 84.5327 14.5133 84.8313 14.308C85.13 14.1027 85.4473 14 85.7833 14C86.306 14 86.7727 14.1773 87.1833 14.532C87.594 14.8867 87.7993 15.3253 87.7993 15.848C87.7993 16.072 87.7433 16.324 87.6313 16.604L83.0393 26.908C82.8713 27.3187 82.6007 27.636 82.2273 27.86C81.854 28.0653 81.462 28.168 81.0513 28.168C80.622 28.168 80.2207 28.0653 79.8473 27.86C79.4927 27.636 79.2313 27.3187 79.0633 26.908L76.0673 19.936L73.1833 26.908C73.0153 27.3187 72.754 27.636 72.3993 27.86C72.0447 28.0653 71.6433 28.168 71.1953 28.168C70.766 28.168 70.3647 28.0653 69.9913 27.86C69.618 27.636 69.3473 27.3187 69.1793 26.908L64.6153 16.604C64.5033 16.3427 64.4473 16.0907 64.4473 15.848C64.4473 15.3253 64.662 14.8867 65.0913 14.532C65.5393 14.1773 66.0433 14 66.6033 14C66.9767 14 67.3127 14.1027 67.6113 14.308C67.9287 14.5133 68.1713 14.812 68.3393 15.204L71.3353 22.736L74.3873 15.26C74.5553 14.868 74.798 14.5693 75.1153 14.364C75.4513 14.14 75.8153 14.028 76.2073 14.028C76.5993 14.028 76.9633 14.1307 77.2993 14.336C77.6353 14.5413 77.8873 14.8493 78.0553 15.26L81.1633 22.736L84.1313 15.204ZM108.303 15.204C108.471 14.812 108.705 14.5133 109.003 14.308C109.302 14.1027 109.619 14 109.955 14C110.478 14 110.945 14.1773 111.355 14.532C111.766 14.8867 111.971 15.3253 111.971 15.848C111.971 16.072 111.915 16.324 111.803 16.604L107.211 26.908C107.043 27.3187 106.773 27.636 106.399 27.86C106.026 28.0653 105.634 28.168 105.223 28.168C104.794 28.168 104.393 28.0653 104.019 27.86C103.665 27.636 103.403 27.3187 103.235 26.908L100.239 19.936L97.3552 26.908C97.1872 27.3187 96.9259 27.636 96.5712 27.86C96.2166 28.0653 95.8152 28.168 95.3672 28.168C94.9379 28.168 94.5366 28.0653 94.1632 27.86C93.7899 27.636 93.5192 27.3187 93.3512 26.908L88.7872 16.604C88.6752 16.3427 88.6192 16.0907 88.6192 15.848C88.6192 15.3253 88.8339 14.8867 89.2632 14.532C89.7112 14.1773 90.2152 14 90.7752 14C91.1486 14 91.4846 14.1027 91.7832 14.308C92.1006 14.5133 92.3432 14.812 92.5112 15.204L95.5072 22.736L98.5592 15.26C98.7272 14.868 98.9699 14.5693 99.2872 14.364C99.6232 14.14 99.9872 14.028 100.379 14.028C100.771 14.028 101.135 14.1307 101.471 14.336C101.807 14.5413 102.059 14.8493 102.227 15.26L105.335 22.736L108.303 15.204Z" fill="white"/>
<path d="M6.71343 31.8813C10.5267 31.1369 12.1466 27.8529 11.6988 24.8529L9.40495 18.6036C7.44866 19.5477 6.28591 21.0486 6.21896 23.6596L6.17544 31.4891C6.1332 31.8449 6.31375 31.9769 6.71343 31.8813Z" fill="url(#paint0_linear)"/>
<path d="M23.2971 32.0523C17.1015 30.6289 13.2429 28.2525 11.7232 24.9262L9.3125 18.7652C10.274 18.042 11.8886 17.5221 13.9761 17.0568L24.1535 31.0975C24.8327 32.2262 24.422 32.286 23.2971 32.0523Z" fill="url(#paint1_linear)"/>
<path d="M20.1912 9.60519C20.3115 12.9573 18.0296 15.6943 14.1042 17.0521C9.13284 18.1404 6.56216 20.1174 6.21214 23.8339L6.14404 17.4344C6.22801 16.3969 6.56337 15.4984 7.14974 14.7384C7.73617 13.9783 8.57355 13.3567 9.66148 12.873L20.1912 9.60519Z" fill="url(#paint2_linear)"/>
<path d="M6.21347 11.0428L6.16016 17.578C6.28092 15.4878 7.41212 13.9707 9.55011 13.0232L20.1531 9.67803C22.3036 8.63265 26.052 2.71886 25.141 1.74817C24.1925 1.73748 20.0454 3.06491 15.9259 4.45544C9.39523 6.35982 6.15894 8.55681 6.21347 11.0428Z" fill="url(#paint3_linear)"/>
<defs>
<linearGradient id="paint0_linear" x1="9.99163" y1="28.3277" x2="6.23266" y2="27.0915" gradientUnits="userSpaceOnUse">
<stop stop-color="#623CEA" stop-opacity="0.9"/>
<stop offset="1" stop-color="#5236B2"/>
</linearGradient>
<linearGradient id="paint1_linear" x1="11.8259" y1="22.3119" x2="17.9095" y2="27.7595" gradientUnits="userSpaceOnUse">
<stop stop-color="#5236B2"/>
<stop offset="1" stop-color="#623CEA" stop-opacity="0.9"/>
</linearGradient>
<linearGradient id="paint2_linear" x1="11.2851" y1="13.8548" x2="12.2003" y2="16.5324" gradientUnits="userSpaceOnUse">
<stop offset="0.0208333" stop-color="#5236B2"/>
<stop offset="1" stop-color="#623CEA" stop-opacity="0.9"/>
</linearGradient>
<linearGradient id="paint3_linear" x1="14.4182" y1="7.29255" x2="15.3618" y2="9.7982" gradientUnits="userSpaceOnUse">
<stop offset="0.0208333" stop-color="#5236B2"/>
<stop offset="1" stop-color="#623CEA" stop-opacity="0.9"/>
</linearGradient>
</defs>
</svg>
