<svg width="118" height="108" viewBox="0 0 118 108" fill="none" xmlns="http://www.w3.org/2000/svg">
<g filter="url(#filter0_d)">
<rect x="8" y="4" width="102" height="92" rx="15" fill="white"/>
<rect x="8.25" y="4.25" width="101.5" height="91.5" rx="14.75" stroke="#110B11" stroke-opacity="0.1" stroke-width="0.5"/>
</g>
<path d="M55 33.6667L59 37.6667L72.3333 24.3334" stroke="#110B11" stroke-opacity="0.6" stroke-width="3" stroke-linecap="round" stroke-linejoin="round"/>
<path d="M71 35V44.3333C71 45.0406 70.719 45.7189 70.219 46.219C69.7189 46.719 69.0406 47 68.3333 47H49.6667C48.9594 47 48.2811 46.719 47.781 46.219C47.281 45.7189 47 45.0406 47 44.3333V25.6667C47 24.9594 47.281 24.2811 47.781 23.781C48.2811 23.281 48.9594 23 49.6667 23H64.3333" stroke="#110B11" stroke-opacity="0.6" stroke-width="3" stroke-linecap="round" stroke-linejoin="round"/>
<path d="M29.6068 77.07C29.3268 77.07 29.1028 76.9907 28.9348 76.832C28.7761 76.664 28.6968 76.4447 28.6968 76.174V68.614H26.1488C25.5888 68.614 25.3088 68.3667 25.3088 67.872C25.3088 67.3773 25.5888 67.13 26.1488 67.13H33.0508C33.6108 67.13 33.8908 67.3773 33.8908 67.872C33.8908 68.3667 33.6108 68.614 33.0508 68.614H30.5028V76.174C30.5028 76.4447 30.4188 76.664 30.2508 76.832C30.0921 76.9907 29.8775 77.07 29.6068 77.07ZM37.183 77.112C36.483 77.112 35.867 76.9673 35.335 76.678C34.8123 76.3887 34.4063 75.9733 34.117 75.432C33.8276 74.8907 33.683 74.2607 33.683 73.542C33.683 72.8233 33.8276 72.198 34.117 71.666C34.4063 71.1247 34.8123 70.7093 35.335 70.42C35.867 70.1307 36.483 69.986 37.183 69.986C37.883 69.986 38.4943 70.1307 39.017 70.42C39.549 70.7093 39.955 71.1247 40.235 71.666C40.5243 72.198 40.669 72.8233 40.669 73.542C40.669 74.2607 40.5243 74.8907 40.235 75.432C39.955 75.9733 39.549 76.3887 39.017 76.678C38.4943 76.9673 37.883 77.112 37.183 77.112ZM37.169 75.754C37.7383 75.754 38.1723 75.5673 38.471 75.194C38.7696 74.8207 38.919 74.27 38.919 73.542C38.919 72.8233 38.7696 72.2773 38.471 71.904C38.1723 71.5213 37.743 71.33 37.183 71.33C36.623 71.33 36.189 71.5213 35.881 71.904C35.5823 72.2773 35.433 72.8233 35.433 73.542C35.433 74.27 35.5823 74.8207 35.881 75.194C36.1796 75.5673 36.609 75.754 37.169 75.754ZM43.3548 73.948C43.0841 73.948 42.8788 73.8873 42.7388 73.766C42.6081 73.6447 42.5428 73.4767 42.5428 73.262C42.5428 73.0473 42.6081 72.8793 42.7388 72.758C42.8788 72.6273 43.0841 72.562 43.3548 72.562H46.2388C46.5095 72.562 46.7101 72.6273 46.8408 72.758C46.9808 72.8793 47.0508 73.0473 47.0508 73.262C47.0508 73.4767 46.9808 73.6447 46.8408 73.766C46.7101 73.8873 46.5095 73.948 46.2388 73.948H43.3548ZM50.1111 77C49.8404 77 49.6258 76.9253 49.4671 76.776C49.3178 76.6267 49.2431 76.4167 49.2431 76.146V67.984C49.2431 67.7133 49.3178 67.5033 49.4671 67.354C49.6258 67.2047 49.8404 67.13 50.1111 67.13H52.8831C54.4978 67.13 55.7484 67.564 56.6351 68.432C57.5311 69.2907 57.9791 70.4993 57.9791 72.058C57.9791 73.626 57.5311 74.844 56.6351 75.712C55.7484 76.5707 54.4978 77 52.8831 77H50.1111ZM52.7711 75.53C55.0391 75.53 56.1731 74.3727 56.1731 72.058C56.1731 69.7527 55.0391 68.6 52.7711 68.6H51.0491V75.53H52.7711ZM63.1158 77.112C62.4158 77.112 61.7998 76.9673 61.2678 76.678C60.7451 76.3887 60.3391 75.9733 60.0498 75.432C59.7605 74.8907 59.6158 74.2607 59.6158 73.542C59.6158 72.8233 59.7605 72.198 60.0498 71.666C60.3391 71.1247 60.7451 70.7093 61.2678 70.42C61.7998 70.1307 62.4158 69.986 63.1158 69.986C63.8158 69.986 64.4271 70.1307 64.9498 70.42C65.4818 70.7093 65.8878 71.1247 66.1678 71.666C66.4571 72.198 66.6018 72.8233 66.6018 73.542C66.6018 74.2607 66.4571 74.8907 66.1678 75.432C65.8878 75.9733 65.4818 76.3887 64.9498 76.678C64.4271 76.9673 63.8158 77.112 63.1158 77.112ZM63.1018 75.754C63.6711 75.754 64.1051 75.5673 64.4038 75.194C64.7025 74.8207 64.8518 74.27 64.8518 73.542C64.8518 72.8233 64.7025 72.2773 64.4038 71.904C64.1051 71.5213 63.6758 71.33 63.1158 71.33C62.5558 71.33 62.1218 71.5213 61.8138 71.904C61.5151 72.2773 61.3658 72.8233 61.3658 73.542C61.3658 74.27 61.5151 74.8207 61.8138 75.194C62.1125 75.5673 62.5418 75.754 63.1018 75.754ZM73.4153 77.084C73.1633 77.084 72.9533 77.014 72.7853 76.874C72.6266 76.7247 72.5473 76.5147 72.5473 76.244V67.886C72.5473 67.6153 72.6266 67.41 72.7853 67.27C72.9533 67.13 73.1633 67.06 73.4153 67.06C73.6673 67.06 73.8773 67.13 74.0453 67.27C74.2133 67.41 74.2973 67.6153 74.2973 67.886V76.244C74.2973 76.5147 74.2133 76.7247 74.0453 76.874C73.8773 77.014 73.6673 77.084 73.4153 77.084ZM77.32 77.084C77.068 77.084 76.858 77.014 76.69 76.874C76.5313 76.7247 76.452 76.5147 76.452 76.244V70.84C76.452 70.5693 76.5313 70.364 76.69 70.224C76.858 70.084 77.068 70.014 77.32 70.014C77.572 70.014 77.782 70.084 77.95 70.224C78.118 70.364 78.202 70.5693 78.202 70.84V76.244C78.202 76.5147 78.118 76.7247 77.95 76.874C77.782 77.014 77.572 77.084 77.32 77.084ZM77.32 68.768C77.0027 68.768 76.7507 68.684 76.564 68.516C76.3773 68.3387 76.284 68.11 76.284 67.83C76.284 67.55 76.3773 67.326 76.564 67.158C76.7507 66.99 77.0027 66.906 77.32 66.906C77.628 66.906 77.8753 66.99 78.062 67.158C78.258 67.326 78.356 67.55 78.356 67.83C78.356 68.11 78.2627 68.3387 78.076 68.516C77.8893 68.684 77.6373 68.768 77.32 68.768ZM82.8347 77.112C81.8173 77.112 80.996 76.9113 80.3707 76.51C80.072 76.3327 79.9227 76.0807 79.9227 75.754C79.9227 75.5673 79.974 75.418 80.0767 75.306C80.1793 75.1847 80.3053 75.124 80.4547 75.124C80.6133 75.124 80.8327 75.1987 81.1127 75.348C81.4113 75.488 81.682 75.5953 81.9247 75.67C82.1767 75.7447 82.494 75.782 82.8767 75.782C83.2687 75.782 83.572 75.7167 83.7867 75.586C84.0107 75.4553 84.1227 75.2733 84.1227 75.04C84.1227 74.8813 84.076 74.7553 83.9827 74.662C83.8987 74.5687 83.74 74.4847 83.5067 74.41C83.2827 74.326 82.9373 74.2327 82.4707 74.13C81.64 73.962 81.0427 73.724 80.6787 73.416C80.324 73.108 80.1467 72.6833 80.1467 72.142C80.1467 71.7313 80.268 71.3627 80.5107 71.036C80.7533 70.7 81.0847 70.4433 81.5047 70.266C81.934 70.0793 82.4193 69.986 82.9607 69.986C83.3527 69.986 83.7307 70.0373 84.0947 70.14C84.4587 70.2333 84.7853 70.3733 85.0747 70.56C85.3733 70.7467 85.5227 70.994 85.5227 71.302C85.5227 71.4887 85.4713 71.6473 85.3687 71.778C85.266 71.8993 85.14 71.96 84.9907 71.96C84.888 71.96 84.7853 71.9413 84.6827 71.904C84.5893 71.8573 84.468 71.792 84.3187 71.708C84.048 71.568 83.8147 71.4653 83.6187 71.4C83.4227 71.3253 83.18 71.288 82.8907 71.288C82.5453 71.288 82.27 71.358 82.0647 71.498C81.8687 71.638 81.7707 71.8293 81.7707 72.072C81.7707 72.3053 81.8733 72.4827 82.0787 72.604C82.284 72.7253 82.6807 72.8467 83.2687 72.968C83.894 73.0987 84.384 73.248 84.7387 73.416C85.0933 73.584 85.3453 73.794 85.4947 74.046C85.6533 74.298 85.7327 74.62 85.7327 75.012C85.7327 75.6467 85.4667 76.1553 84.9347 76.538C84.412 76.9207 83.712 77.112 82.8347 77.112ZM90.9892 75.782C91.4559 75.81 91.6892 76.02 91.6892 76.412C91.6892 76.636 91.5959 76.8087 91.4092 76.93C91.2319 77.042 90.9752 77.0887 90.6392 77.07L90.2612 77.042C88.6932 76.93 87.9092 76.09 87.9092 74.522V71.47H87.2092C86.9572 71.47 86.7612 71.414 86.6212 71.302C86.4906 71.19 86.4252 71.0267 86.4252 70.812C86.4252 70.5973 86.4906 70.434 86.6212 70.322C86.7612 70.21 86.9572 70.154 87.2092 70.154H87.9092V68.866C87.9092 68.614 87.9886 68.4133 88.1472 68.264C88.3059 68.1147 88.5206 68.04 88.7912 68.04C89.0526 68.04 89.2626 68.1147 89.4212 68.264C89.5799 68.4133 89.6592 68.614 89.6592 68.866V70.154H90.8492C91.1012 70.154 91.2926 70.21 91.4232 70.322C91.5632 70.434 91.6332 70.5973 91.6332 70.812C91.6332 71.0267 91.5632 71.19 91.4232 71.302C91.2926 71.414 91.1012 71.47 90.8492 71.47H89.6592V74.648C89.6592 75.3387 89.9766 75.7073 90.6112 75.754L90.9892 75.782Z" fill="#110B11" fill-opacity="0.6"/>
<defs>
<filter id="filter0_d" x="0" y="0" width="118" height="108" filterUnits="userSpaceOnUse" color-interpolation-filters="sRGB">
<feFlood flood-opacity="0" result="BackgroundImageFix"/>
<feColorMatrix in="SourceAlpha" type="matrix" values="0 0 0 0 0 0 0 0 0 0 0 0 0 0 0 0 0 0 127 0"/>
<feOffset dy="4"/>
<feGaussianBlur stdDeviation="4"/>
<feColorMatrix type="matrix" values="0 0 0 0 0.0666667 0 0 0 0 0.0431373 0 0 0 0 0.0666667 0 0 0 0.1 0"/>
<feBlend mode="normal" in2="BackgroundImageFix" result="effect1_dropShadow"/>
<feBlend mode="normal" in="SourceGraphic" in2="effect1_dropShadow" result="shape"/>
</filter>
</defs>
</svg>
