<svg width="118" height="108" viewBox="0 0 118 108" fill="none" xmlns="http://www.w3.org/2000/svg">
<g filter="url(#filter0_d)">
<rect x="8" y="4" width="102" height="92" rx="15" fill="white"/>
<rect x="8.25" y="4.25" width="101.5" height="91.5" rx="14.75" stroke="#110B11" stroke-opacity="0.1" stroke-width="0.5"/>
</g>
<path d="M32.2149 67.522C32.3643 67.2047 32.6116 67.046 32.9569 67.046C33.1903 67.046 33.4003 67.1207 33.5869 67.27C33.7736 67.4193 33.8669 67.606 33.8669 67.83C33.8669 67.9327 33.8389 68.0493 33.7829 68.18L29.9049 76.524C29.8209 76.7013 29.6903 76.8413 29.5129 76.944C29.3449 77.0373 29.1629 77.084 28.9669 77.084C28.7709 77.084 28.5843 77.0373 28.4069 76.944C28.2389 76.8413 28.1129 76.7013 28.0289 76.524L24.1649 68.18C24.1089 68.0493 24.0809 67.9373 24.0809 67.844C24.0809 67.6107 24.1743 67.4193 24.3609 67.27C24.5569 67.1207 24.7763 67.046 25.0189 67.046C25.1776 67.046 25.3223 67.088 25.4529 67.172C25.5929 67.2467 25.7003 67.3633 25.7749 67.522L28.9949 74.676L32.2149 67.522ZM36.7337 77.084C36.4817 77.084 36.2717 77.014 36.1037 76.874C35.945 76.7247 35.8657 76.5147 35.8657 76.244V70.84C35.8657 70.5693 35.945 70.364 36.1037 70.224C36.2717 70.084 36.4817 70.014 36.7337 70.014C36.9857 70.014 37.1957 70.084 37.3637 70.224C37.5317 70.364 37.6157 70.5693 37.6157 70.84V76.244C37.6157 76.5147 37.5317 76.7247 37.3637 76.874C37.1957 77.014 36.9857 77.084 36.7337 77.084ZM36.7337 68.768C36.4163 68.768 36.1643 68.684 35.9777 68.516C35.791 68.3387 35.6977 68.11 35.6977 67.83C35.6977 67.55 35.791 67.326 35.9777 67.158C36.1643 66.99 36.4163 66.906 36.7337 66.906C37.0417 66.906 37.289 66.99 37.4757 67.158C37.6717 67.326 37.7697 67.55 37.7697 67.83C37.7697 68.11 37.6763 68.3387 37.4897 68.516C37.303 68.684 37.051 68.768 36.7337 68.768ZM45.4824 67.06C45.7437 67.06 45.9584 67.1347 46.1264 67.284C46.2944 67.4333 46.3784 67.6293 46.3784 67.872V76.244C46.3784 76.496 46.299 76.6967 46.1404 76.846C45.9817 76.9953 45.7717 77.07 45.5104 77.07C45.249 77.07 45.039 76.9953 44.8804 76.846C44.7217 76.6967 44.6424 76.496 44.6424 76.244V75.894C44.437 76.2767 44.1384 76.5753 43.7464 76.79C43.3637 77.0047 42.925 77.112 42.4304 77.112C41.8424 77.112 41.315 76.9627 40.8484 76.664C40.391 76.3653 40.0317 75.9453 39.7704 75.404C39.5184 74.8533 39.3924 74.2233 39.3924 73.514C39.3924 72.8047 39.5184 72.184 39.7704 71.652C40.0317 71.12 40.391 70.7093 40.8484 70.42C41.3057 70.1307 41.833 69.986 42.4304 69.986C42.925 69.986 43.3637 70.0887 43.7464 70.294C44.129 70.4993 44.423 70.7887 44.6284 71.162V67.844C44.6284 67.6107 44.703 67.424 44.8524 67.284C45.011 67.1347 45.221 67.06 45.4824 67.06ZM42.8924 75.754C43.4524 75.754 43.8817 75.5627 44.1804 75.18C44.4884 74.7973 44.6424 74.2513 44.6424 73.542C44.6424 72.8327 44.4884 72.2913 44.1804 71.918C43.8817 71.5353 43.457 71.344 42.9064 71.344C42.3464 71.344 41.9124 71.5307 41.6044 71.904C41.2964 72.2773 41.1424 72.814 41.1424 73.514C41.1424 74.2233 41.2964 74.774 41.6044 75.166C41.9124 75.558 42.3417 75.754 42.8924 75.754ZM53.9466 75.124C54.1052 75.124 54.2312 75.1847 54.3246 75.306C54.4272 75.4273 54.4786 75.5907 54.4786 75.796C54.4786 76.0853 54.3059 76.328 53.9606 76.524C53.6432 76.7013 53.2839 76.846 52.8826 76.958C52.4812 77.0607 52.0986 77.112 51.7346 77.112C50.6332 77.112 49.7606 76.7947 49.1166 76.16C48.4726 75.5253 48.1506 74.6573 48.1506 73.556C48.1506 72.856 48.2906 72.2353 48.5706 71.694C48.8506 71.1527 49.2426 70.7327 49.7466 70.434C50.2599 70.1353 50.8386 69.986 51.4826 69.986C52.0986 69.986 52.6352 70.1213 53.0926 70.392C53.5499 70.6627 53.9046 71.0453 54.1566 71.54C54.4086 72.0347 54.5346 72.618 54.5346 73.29C54.5346 73.6913 54.3572 73.892 54.0026 73.892H49.8726C49.9286 74.536 50.1106 75.012 50.4186 75.32C50.7266 75.6187 51.1746 75.768 51.7626 75.768C52.0612 75.768 52.3226 75.7307 52.5466 75.656C52.7799 75.5813 53.0412 75.4787 53.3306 75.348C53.6106 75.1987 53.8159 75.124 53.9466 75.124ZM51.5246 71.218C51.0486 71.218 50.6659 71.3673 50.3766 71.666C50.0966 71.9647 49.9286 72.394 49.8726 72.954H53.0366C53.0179 72.3847 52.8779 71.9553 52.6166 71.666C52.3552 71.3673 51.9912 71.218 51.5246 71.218ZM59.4381 77.112C58.7381 77.112 58.1221 76.9673 57.5901 76.678C57.0674 76.3887 56.6614 75.9733 56.3721 75.432C56.0827 74.8907 55.9381 74.2607 55.9381 73.542C55.9381 72.8233 56.0827 72.198 56.3721 71.666C56.6614 71.1247 57.0674 70.7093 57.5901 70.42C58.1221 70.1307 58.7381 69.986 59.4381 69.986C60.1381 69.986 60.7494 70.1307 61.2721 70.42C61.8041 70.7093 62.2101 71.1247 62.4901 71.666C62.7794 72.198 62.9241 72.8233 62.9241 73.542C62.9241 74.2607 62.7794 74.8907 62.4901 75.432C62.2101 75.9733 61.8041 76.3887 61.2721 76.678C60.7494 76.9673 60.1381 77.112 59.4381 77.112ZM59.4241 75.754C59.9934 75.754 60.4274 75.5673 60.7261 75.194C61.0247 74.8207 61.1741 74.27 61.1741 73.542C61.1741 72.8233 61.0247 72.2773 60.7261 71.904C60.4274 71.5213 59.9981 71.33 59.4381 71.33C58.8781 71.33 58.4441 71.5213 58.1361 71.904C57.8374 72.2773 57.6881 72.8233 57.6881 73.542C57.6881 74.27 57.8374 74.8207 58.1361 75.194C58.4347 75.5673 58.8641 75.754 59.4241 75.754ZM73.4336 77.126C72.4816 77.126 71.6462 76.9207 70.9276 76.51C70.2182 76.0993 69.6722 75.5113 69.2896 74.746C68.9069 73.9807 68.7156 73.0847 68.7156 72.058C68.7156 71.0313 68.9069 70.14 69.2896 69.384C69.6722 68.6187 70.2182 68.0307 70.9276 67.62C71.6462 67.2093 72.4816 67.004 73.4336 67.004C74.0496 67.004 74.6282 67.0973 75.1696 67.284C75.7109 67.4613 76.1916 67.7227 76.6116 68.068C76.7329 68.1613 76.8169 68.2593 76.8636 68.362C76.9102 68.4647 76.9336 68.5907 76.9336 68.74C76.9336 68.9453 76.8776 69.118 76.7656 69.258C76.6536 69.398 76.5182 69.468 76.3596 69.468C76.1729 69.468 75.9816 69.4027 75.7856 69.272C75.3842 68.9733 75.0109 68.768 74.6656 68.656C74.3202 68.5347 73.9376 68.474 73.5176 68.474C72.5469 68.474 71.8096 68.7773 71.3056 69.384C70.8109 69.9907 70.5636 70.882 70.5636 72.058C70.5636 73.2433 70.8109 74.1393 71.3056 74.746C71.8096 75.3527 72.5469 75.656 73.5176 75.656C73.9189 75.656 74.2876 75.5953 74.6236 75.474C74.9689 75.3527 75.3562 75.1473 75.7856 74.858C75.8789 74.802 75.9722 74.7553 76.0656 74.718C76.1589 74.6807 76.2569 74.662 76.3596 74.662C76.5182 74.662 76.6536 74.732 76.7656 74.872C76.8776 75.012 76.9336 75.1847 76.9336 75.39C76.9336 75.53 76.9102 75.656 76.8636 75.768C76.8169 75.8707 76.7329 75.9687 76.6116 76.062C76.1916 76.4073 75.7109 76.6733 75.1696 76.86C74.6282 77.0373 74.0496 77.126 73.4336 77.126ZM81.5391 69.986C82.4911 69.986 83.1958 70.224 83.6531 70.7C84.1198 71.1667 84.3531 71.8807 84.3531 72.842V76.258C84.3531 76.51 84.2785 76.7107 84.1291 76.86C83.9798 77 83.7745 77.07 83.5131 77.07C83.2705 77.07 83.0698 76.9953 82.9111 76.846C82.7618 76.6967 82.6871 76.5007 82.6871 76.258V75.95C82.5285 76.314 82.2765 76.5987 81.9311 76.804C81.5951 77.0093 81.2031 77.112 80.7551 77.112C80.2978 77.112 79.8825 77.0187 79.5091 76.832C79.1358 76.6453 78.8418 76.3887 78.6271 76.062C78.4125 75.7353 78.3051 75.3713 78.3051 74.97C78.3051 74.466 78.4311 74.0693 78.6831 73.78C78.9445 73.4907 79.3645 73.2807 79.9431 73.15C80.5218 73.0193 81.3198 72.954 82.3371 72.954H82.6871V72.632C82.6871 72.1747 82.5891 71.8433 82.3931 71.638C82.1971 71.4233 81.8798 71.316 81.4411 71.316C81.1705 71.316 80.8951 71.358 80.6151 71.442C80.3351 71.5167 80.0038 71.6287 79.6211 71.778C79.3785 71.8993 79.2011 71.96 79.0891 71.96C78.9211 71.96 78.7811 71.8993 78.6691 71.778C78.5665 71.6567 78.5151 71.498 78.5151 71.302C78.5151 71.1433 78.5525 71.008 78.6271 70.896C78.7111 70.7747 78.8465 70.6627 79.0331 70.56C79.3598 70.3827 79.7471 70.2427 80.1951 70.14C80.6525 70.0373 81.1005 69.986 81.5391 69.986ZM81.1051 75.852C81.5718 75.852 81.9498 75.698 82.2391 75.39C82.5378 75.0727 82.6871 74.6667 82.6871 74.172V73.878H82.4351C81.8098 73.878 81.3245 73.906 80.9791 73.962C80.6338 74.018 80.3865 74.116 80.2371 74.256C80.0878 74.396 80.0131 74.5873 80.0131 74.83C80.0131 75.1287 80.1158 75.376 80.3211 75.572C80.5358 75.7587 80.7971 75.852 81.1051 75.852ZM87.3497 77.084C87.0977 77.084 86.8877 77.014 86.7197 76.874C86.561 76.7247 86.4817 76.5147 86.4817 76.244V67.886C86.4817 67.6153 86.561 67.41 86.7197 67.27C86.8877 67.13 87.0977 67.06 87.3497 67.06C87.6017 67.06 87.8117 67.13 87.9797 67.27C88.1477 67.41 88.2317 67.6153 88.2317 67.886V76.244C88.2317 76.5147 88.1477 76.7247 87.9797 76.874C87.8117 77.014 87.6017 77.084 87.3497 77.084ZM91.2544 77.084C91.0024 77.084 90.7924 77.014 90.6244 76.874C90.4657 76.7247 90.3864 76.5147 90.3864 76.244V67.886C90.3864 67.6153 90.4657 67.41 90.6244 67.27C90.7924 67.13 91.0024 67.06 91.2544 67.06C91.5064 67.06 91.7164 67.13 91.8844 67.27C92.0524 67.41 92.1364 67.6153 92.1364 67.886V76.244C92.1364 76.5147 92.0524 76.7247 91.8844 76.874C91.7164 77.014 91.5064 77.084 91.2544 77.084Z" fill="#110B11" fill-opacity="0.6"/>
<g clip-path="url(#clip0)">
<path d="M73.6666 27.3334L64.3333 34L73.6666 40.6667V27.3334Z" stroke="#110B11" stroke-opacity="0.6" stroke-width="3" stroke-linecap="round" stroke-linejoin="round"/>
<path d="M61.6666 24.6666H47C45.5272 24.6666 44.3333 25.8605 44.3333 27.3333V40.6666C44.3333 42.1394 45.5272 43.3333 47 43.3333H61.6666C63.1394 43.3333 64.3333 42.1394 64.3333 40.6666V27.3333C64.3333 25.8605 63.1394 24.6666 61.6666 24.6666Z" stroke="#110B11" stroke-opacity="0.6" stroke-width="3" stroke-linecap="round" stroke-linejoin="round"/>
</g>
<defs>
<filter id="filter0_d" x="0" y="0" width="118" height="108" filterUnits="userSpaceOnUse" color-interpolation-filters="sRGB">
<feFlood flood-opacity="0" result="BackgroundImageFix"/>
<feColorMatrix in="SourceAlpha" type="matrix" values="0 0 0 0 0 0 0 0 0 0 0 0 0 0 0 0 0 0 127 0"/>
<feOffset dy="4"/>
<feGaussianBlur stdDeviation="4"/>
<feColorMatrix type="matrix" values="0 0 0 0 0.0666667 0 0 0 0 0.0431373 0 0 0 0 0.0666667 0 0 0 0.1 0"/>
<feBlend mode="normal" in2="BackgroundImageFix" result="effect1_dropShadow"/>
<feBlend mode="normal" in="SourceGraphic" in2="effect1_dropShadow" result="shape"/>
</filter>
<clipPath id="clip0">
<rect width="32" height="32" fill="white" transform="translate(43 18)"/>
</clipPath>
</defs>
</svg>
